<svg xmlns="http://www.w3.org/2000/svg" width="1024" height="1024" viewBox="0 0 1024 1024"><path fill="#98d5a4" d="M482.2 141.1V234a25.2 25.2 0 0050.5 0v-93a25.2 25.2 0 00-50.5 0M204.8 243.2a25.2 25.2 0 00-35.7 35.7l65.5 65.5a25.2 25.2 0 0035.7-35.7zm539.8 65.5a25.2 25.2 0 0035.7 35.7l65.5-65.5a25.2 25.2 0 00-35.7-35.7zM118.7 865a25.2 25.2 0 0017.9 43.1h741.7a25.2 25.2 0 0017.8-43l-76.7-76.8A343.6 343.6 0 00851 645a344 344 0 00-343.6-343.7A344 344 0 00164 645q.3 75.2 31.6 143.4zm388.7-513.2a292.7 292.7 0 01273.5 398L525.3 494a25.2 25.2 0 00-35.7 0L234 749.8a292.7 292.7 0 01273.5-398M25.3 533.1a25.2 25.2 0 000 50.5H118a25.2 25.2 0 000-50.5zm880.7 0a25.2 25.2 0 000 50.5h92.8a25.2 25.2 0 000-50.5zm-398.6 14.6 149.8 149.7-57 57-75-74.8a25.2 25.2 0 00-35.6 0l-74.9 74.8-57-57zM322 733.1l75 74.9a25.2 25.2 0 0035.7 0l74.8-74.9 75 74.9a25.2 25.2 0 0035.6 0l74.9-75 124.5 124.5h-620z"/></svg>