<svg xmlns="http://www.w3.org/2000/svg" width="960" height="540" viewBox="0 0 960 540"><path fill="#336037" d="m0 210 22.8-3.2c22.9-3.1 68.5-9.5 114.2-11.6 45.7-2.2 91.3-.2 137-6 45.7-5.9 91.3-19.5 137.2-16.9C457 175 503 194 548.8 199.7c45.9 5.6 91.5-2 137.2-9.4 45.7-7.3 91.3-14.3 137-22.5 45.7-8.1 91.3-17.5 114.2-22.1L960 141V0H0Z"/><path fill="#42823f" d="m0 107 22.8 12.5C45.7 132 91.3 157 137 161.5s91.3-11.5 137-22.8c45.7-11.4 91.3-18 137.2-21.4 45.8-3.3 91.8-3.3 137.6.5 45.9 3.9 91.5 11.5 137.2 10.9 45.7-.7 91.3-9.7 137-11.9 45.7-2.1 91.3 2.5 114.2 4.9L960 124V0H0Z"/><path fill="#56a644" d="m0 124 22.8-.2c22.9-.1 68.5-.5 114.2.7s91.3 3.8 137 4.2c45.7.3 91.3-1.7 137.2-2.2 45.8-.5 91.8.5 137.6-.5 45.9-1 91.5-4 137.2-6.5 45.7-2.5 91.3-4.5 137-2.3 45.7 2.1 91.3 8.5 114.2 11.6L960 132V0H0Z"/><path fill="#70cb44" d="m0 81 22.8-.7c22.9-.6 68.5-2 114.2-.1 45.7 1.8 91.3 6.8 137 8.3 45.7 1.5 91.3-.5 137.2-.7 45.8-.1 91.8 1.5 137.6 1.7 45.9.2 91.5-1.2 137.2-7.7 45.7-6.5 91.3-18.1 137-17.5 45.7.7 91.3 13.7 114.2 20.2L960 91V0H0Z"/><path fill="#8ff03f" d="m0 47 22.8-3.3c22.9-3.4 68.5-10 114.2-10.2 45.7-.2 91.3 6.2 137 9.8 45.7 3.7 91.3 4.7 137.2 5.4 45.8.6 91.8 1 137.6-3.2 45.9-4.2 91.5-12.8 137.2-11.7C731.7 35 777.3 46 823 47.3c45.7 1.4 91.3-7 114.2-11.1L960 32V0H0Z"/></svg>