<svg xmlns="http://www.w3.org/2000/svg" xmlns:xlink="http://www.w3.org/1999/xlink" id="visual" width="960" height="540" version="1.1" viewBox="0 0 960 540"><path fill="#475569" stroke-linecap="round" stroke-linejoin="miter" d="M0 180L22.8 164.3C45.7 148.7 91.3 117.3 137 108.8C182.7 100.3 228.3 114.7 274 124.7C319.7 134.7 365.3 140.3 411.2 140.5C457 140.7 503 135.3 548.8 139.3C594.7 143.3 640.3 156.7 686 148.7C731.7 140.7 777.3 111.3 823 101.2C868.7 91 914.3 100 937.2 104.5L960 109L960 0L937.2 0C914.3 0 868.7 0 823 0C777.3 0 731.7 0 686 0C640.3 0 594.7 0 548.8 0C503 0 457 0 411.2 0C365.3 0 319.7 0 274 0C228.3 0 182.7 0 137 0C91.3 0 45.7 0 22.8 0L0 0Z"/></svg>